<svg xmlns="http://www.w3.org/2000/svg" xmlns:xlink="http://www.w3.org/1999/xlink" version="1.1" id="Layer_1" x="0px" y="0px" viewBox="0 0 198 108" style="enable-background:new 0 0 198 108;" xml:space="preserve" transform="matrix(1, 0, 0, 1, 0, 0)">
<style type="text/css">
	.st0{fill:#fff;}
</style>
<g>
	<path class="st0" d="M95.1,51.16h2.87l5.73,14.89h-2.95l-1.17-3.07h-6.08l-1.21,3.07h-2.95L95.1,51.16z M96.56,55.11l-2,5.11h3.98   L96.56,55.11z" fill="#fff"/>
	<path class="st0" d="M105.29,50.79h2.76v15.27h-2.76V50.79z" fill="#fff"/>
	<path class="st0" d="M118.11,51.16h2.76l3.45,10.39l3.48-10.39h2.76l2.5,14.89h-2.74l-1.6-9.4l-3.16,9.4h-2.5l-3.14-9.4l-1.63,9.4   h-2.76L118.11,51.16z" fill="#fff"/>
	<path class="st0" d="M143.15,55.04h2.76v11.01h-2.76v-1.16c-0.54,0.51-1.08,0.88-1.62,1.11c-0.54,0.23-1.13,0.34-1.76,0.34   c-1.42,0-2.65-0.55-3.69-1.65s-1.56-2.48-1.56-4.11c0-1.7,0.5-3.09,1.51-4.18s2.22-1.63,3.66-1.63c0.66,0,1.28,0.13,1.86,0.37   c0.58,0.25,1.12,0.62,1.61,1.12V55.04z M140.24,57.31c-0.85,0-1.56,0.3-2.13,0.91s-0.85,1.38-0.85,2.32c0,0.95,0.29,1.73,0.86,2.35   c0.57,0.61,1.28,0.92,2.12,0.92c0.87,0,1.59-0.3,2.16-0.91c0.57-0.6,0.86-1.4,0.86-2.37c0-0.96-0.29-1.73-0.86-2.33   C141.84,57.6,141.11,57.31,140.24,57.31z" fill="#fff"/>
	<path class="st0" d="M156.84,55.04h2.75v9.43c0,1.86-0.37,3.23-1.12,4.11c-1.01,1.19-2.52,1.78-4.54,1.78   c-1.08,0-1.99-0.13-2.72-0.4c-0.74-0.27-1.36-0.67-1.86-1.19s-0.88-1.16-1.12-1.91h3.05c0.27,0.31,0.62,0.54,1.04,0.7   s0.93,0.24,1.51,0.24c0.74,0,1.34-0.11,1.79-0.34c0.45-0.23,0.77-0.53,0.96-0.89c0.19-0.36,0.28-0.99,0.28-1.88   c-0.49,0.49-1,0.84-1.53,1.05s-1.14,0.32-1.81,0.32c-1.48,0-2.73-0.53-3.75-1.6c-1.02-1.07-1.53-2.42-1.53-4.05   c0-1.75,0.54-3.15,1.62-4.21c0.98-0.96,2.15-1.44,3.5-1.44c0.63,0,1.23,0.12,1.8,0.35s1.13,0.62,1.7,1.15V55.04z M153.98,57.34   c-0.87,0-1.59,0.29-2.16,0.88c-0.57,0.58-0.85,1.32-0.85,2.2c0,0.92,0.29,1.67,0.87,2.26c0.58,0.59,1.31,0.88,2.19,0.88   c0.86,0,1.56-0.29,2.12-0.86c0.56-0.57,0.83-1.33,0.83-2.26c0-0.92-0.28-1.66-0.84-2.24S154.86,57.34,153.98,57.34z" fill="#fff"/>
	<path class="st0" d="M173.42,61.34h-8.88c0.13,0.78,0.47,1.41,1.03,1.87s1.27,0.69,2.13,0.69c1.03,0,1.92-0.36,2.66-1.08l2.33,1.09   c-0.58,0.82-1.28,1.43-2.08,1.83c-0.81,0.39-1.77,0.59-2.89,0.59c-1.73,0-3.13-0.54-4.22-1.63c-1.09-1.09-1.63-2.45-1.63-4.09   c0-1.68,0.54-3.08,1.62-4.19c1.08-1.11,2.44-1.67,4.07-1.67c1.73,0,3.14,0.56,4.23,1.67c1.09,1.11,1.63,2.58,1.63,4.4L173.42,61.34   z M170.66,59.17c-0.18-0.61-0.54-1.11-1.08-1.5c-0.54-0.38-1.16-0.58-1.87-0.58c-0.77,0-1.45,0.22-2.03,0.65   c-0.37,0.27-0.7,0.75-1.01,1.43H170.66z" fill="#fff"/>
	<path class="st0" d="M183.79,50.79h2.76v15.27h-2.76v-1.16c-0.54,0.51-1.08,0.88-1.62,1.11c-0.54,0.23-1.13,0.34-1.76,0.34   c-1.42,0-2.65-0.55-3.69-1.65s-1.56-2.48-1.56-4.11c0-1.7,0.5-3.09,1.51-4.18s2.22-1.63,3.66-1.63c0.66,0,1.28,0.13,1.86,0.37   c0.58,0.25,1.12,0.62,1.61,1.12V50.79z M180.88,57.31c-0.85,0-1.56,0.3-2.13,0.91s-0.85,1.38-0.85,2.32c0,0.95,0.29,1.73,0.86,2.35   c0.57,0.61,1.28,0.92,2.12,0.92c0.87,0,1.59-0.3,2.16-0.91c0.57-0.6,0.86-1.4,0.86-2.37c0-0.96-0.29-1.73-0.86-2.33   C182.48,57.6,181.76,57.31,180.88,57.31z" fill="#fff"/>
	<path class="st0" d="M82.37,73.22v-0.66h3.68v0.66h-1.5v6.07h-0.69v-6.07H82.37z" fill="#fff"/>
	<path class="st0" d="M91.1,77.64l0.54,0.28c-0.18,0.35-0.38,0.63-0.61,0.84c-0.23,0.21-0.49,0.38-0.78,0.49   c-0.29,0.11-0.62,0.17-0.98,0.17c-0.81,0-1.45-0.27-1.9-0.8c-0.46-0.53-0.69-1.13-0.69-1.8c0-0.63,0.19-1.19,0.58-1.69   c0.49-0.63,1.15-0.94,1.97-0.94c0.85,0,1.53,0.32,2.03,0.96c0.36,0.45,0.54,1.02,0.55,1.7h-4.48c0.01,0.58,0.2,1.05,0.55,1.42   c0.36,0.37,0.8,0.55,1.32,0.55c0.25,0,0.5-0.04,0.74-0.13c0.24-0.09,0.44-0.21,0.61-0.35C90.72,78.2,90.91,77.96,91.1,77.64z    M91.1,76.3c-0.09-0.34-0.21-0.61-0.37-0.82c-0.16-0.2-0.38-0.37-0.65-0.49s-0.55-0.19-0.85-0.19c-0.49,0-0.91,0.16-1.26,0.47   c-0.26,0.23-0.45,0.57-0.58,1.03H91.1z" fill="#fff"/>
	<path class="st0" d="M97.83,75.35l-0.51,0.32c-0.44-0.58-1.04-0.87-1.79-0.87c-0.61,0-1.11,0.19-1.51,0.58s-0.6,0.86-0.6,1.42   c0,0.36,0.09,0.7,0.28,1.02c0.18,0.32,0.44,0.57,0.76,0.74c0.32,0.18,0.68,0.26,1.08,0.26c0.73,0,1.33-0.29,1.79-0.87l0.51,0.33   c-0.24,0.36-0.56,0.64-0.96,0.83s-0.86,0.3-1.37,0.3c-0.79,0-1.44-0.25-1.96-0.75c-0.52-0.5-0.78-1.11-0.78-1.82   c0-0.48,0.12-0.93,0.36-1.34c0.24-0.41,0.58-0.74,1-0.97s0.9-0.35,1.42-0.35c0.33,0,0.65,0.05,0.95,0.15   c0.31,0.1,0.57,0.23,0.78,0.39S97.68,75.1,97.83,75.35z" fill="#fff"/>
	<path class="st0" d="M99.06,72.39h0.64v2.81c0.26-0.34,0.54-0.6,0.85-0.77c0.31-0.17,0.65-0.25,1.01-0.25   c0.37,0,0.7,0.09,0.99,0.28s0.5,0.44,0.64,0.76s0.21,0.82,0.21,1.5v2.56h-0.64v-2.37c0-0.57-0.02-0.96-0.07-1.15   c-0.08-0.33-0.22-0.58-0.43-0.74c-0.21-0.17-0.48-0.25-0.82-0.25c-0.39,0-0.73,0.13-1.04,0.38c-0.31,0.26-0.51,0.57-0.61,0.95   c-0.06,0.24-0.09,0.69-0.09,1.35v1.82h-0.64V72.39z" fill="#fff"/>
	<path class="st0" d="M104.77,74.31h0.64v0.89c0.26-0.34,0.54-0.6,0.85-0.77c0.31-0.17,0.65-0.25,1.01-0.25   c0.37,0,0.7,0.09,0.99,0.28s0.5,0.44,0.64,0.76c0.14,0.32,0.21,0.82,0.21,1.49v2.56h-0.64v-2.37c0-0.57-0.02-0.96-0.07-1.15   c-0.07-0.33-0.22-0.58-0.43-0.74c-0.21-0.17-0.48-0.25-0.82-0.25c-0.39,0-0.73,0.13-1.04,0.38c-0.31,0.26-0.51,0.57-0.61,0.95   c-0.06,0.25-0.09,0.7-0.09,1.35v1.82h-0.64V74.31z" fill="#fff"/>
	<path class="st0" d="M112.83,74.19c0.77,0,1.4,0.28,1.91,0.83c0.46,0.51,0.69,1.1,0.69,1.8c0,0.69-0.24,1.3-0.73,1.82   s-1.11,0.78-1.87,0.78c-0.76,0-1.39-0.26-1.87-0.78s-0.73-1.13-0.73-1.82c0-0.69,0.23-1.29,0.69-1.79   C111.42,74.46,112.06,74.19,112.83,74.19z M112.83,74.81c-0.53,0-0.99,0.2-1.37,0.59s-0.57,0.87-0.57,1.43   c0,0.36,0.09,0.69,0.26,1.01c0.17,0.31,0.41,0.55,0.71,0.72c0.3,0.17,0.62,0.25,0.98,0.25c0.35,0,0.68-0.08,0.98-0.25   c0.3-0.17,0.53-0.41,0.71-0.72c0.17-0.31,0.26-0.65,0.26-1.01c0-0.56-0.19-1.03-0.58-1.43S113.36,74.81,112.83,74.81z" fill="#fff"/>
	<path class="st0" d="M116.51,72.39h0.64v6.89h-0.64V72.39z" fill="#fff"/>
	<path class="st0" d="M120.83,74.19c0.77,0,1.4,0.28,1.91,0.83c0.46,0.51,0.69,1.1,0.69,1.8c0,0.69-0.24,1.3-0.73,1.82   s-1.11,0.78-1.87,0.78c-0.76,0-1.39-0.26-1.87-0.78s-0.73-1.13-0.73-1.82c0-0.69,0.23-1.29,0.69-1.79   C119.43,74.46,120.06,74.19,120.83,74.19z M120.83,74.81c-0.53,0-0.99,0.2-1.37,0.59s-0.57,0.87-0.57,1.43   c0,0.36,0.09,0.69,0.26,1.01c0.17,0.31,0.41,0.55,0.71,0.72c0.3,0.17,0.62,0.25,0.98,0.25c0.35,0,0.68-0.08,0.98-0.25   c0.3-0.17,0.53-0.41,0.71-0.72c0.17-0.31,0.26-0.65,0.26-1.01c0-0.56-0.19-1.03-0.58-1.43S121.36,74.81,120.83,74.81z" fill="#fff"/>
	<path class="st0" d="M128.9,74.31h0.64v3.96c0,0.7-0.06,1.21-0.18,1.53c-0.17,0.46-0.46,0.81-0.87,1.06   c-0.41,0.25-0.91,0.37-1.5,0.37c-0.43,0-0.81-0.06-1.15-0.18c-0.34-0.12-0.62-0.28-0.83-0.49s-0.41-0.5-0.59-0.89h0.69   c0.19,0.33,0.43,0.57,0.73,0.73c0.3,0.16,0.67,0.24,1.11,0.24c0.44,0,0.8-0.08,1.11-0.24c0.3-0.16,0.51-0.37,0.64-0.61   c0.13-0.25,0.19-0.64,0.19-1.19v-0.26c-0.24,0.3-0.54,0.54-0.88,0.7c-0.35,0.16-0.72,0.24-1.11,0.24c-0.46,0-0.89-0.11-1.29-0.34   c-0.4-0.23-0.71-0.53-0.93-0.92c-0.22-0.38-0.33-0.81-0.33-1.27s0.11-0.89,0.34-1.29c0.23-0.4,0.55-0.71,0.95-0.94   s0.83-0.35,1.28-0.35c0.37,0,0.72,0.08,1.04,0.23c0.32,0.15,0.63,0.41,0.93,0.76V74.31z M127.01,74.8c-0.36,0-0.7,0.09-1.01,0.26   c-0.31,0.18-0.55,0.42-0.73,0.73c-0.18,0.31-0.27,0.64-0.27,1c0,0.55,0.18,1,0.55,1.35c0.37,0.36,0.84,0.53,1.42,0.53   c0.59,0,1.06-0.18,1.42-0.53c0.36-0.35,0.54-0.82,0.54-1.39c0-0.38-0.08-0.71-0.25-1c-0.16-0.29-0.4-0.53-0.7-0.7   C127.68,74.89,127.36,74.8,127.01,74.8z" fill="#fff"/>
	<path class="st0" d="M130.38,74.31h0.68l1.71,3.83l1.66-3.83h0.68l-2.97,6.79h-0.68l0.96-2.2L130.38,74.31z" fill="#fff"/>
	<path class="st0" d="M138.62,72.56h1.34c0.77,0,1.29,0.03,1.55,0.1c0.38,0.09,0.7,0.29,0.94,0.58c0.24,0.29,0.37,0.66,0.37,1.11   c0,0.45-0.12,0.82-0.36,1.11s-0.57,0.49-0.98,0.59c-0.3,0.07-0.87,0.11-1.71,0.11h-0.48v3.13h-0.67V72.56z M139.29,73.22v2.28   l1.14,0.01c0.46,0,0.8-0.04,1.01-0.13s0.38-0.22,0.5-0.41c0.12-0.19,0.18-0.4,0.18-0.63c0-0.23-0.06-0.43-0.18-0.62   s-0.28-0.32-0.48-0.4s-0.53-0.12-0.98-0.12H139.29z" fill="#fff"/>
	<path class="st0" d="M143.82,74.31h0.65v0.73c0.2-0.29,0.4-0.5,0.62-0.64s0.44-0.21,0.68-0.21c0.18,0,0.37,0.06,0.57,0.17   L146,74.89c-0.13-0.06-0.25-0.09-0.34-0.09c-0.21,0-0.42,0.09-0.62,0.26c-0.2,0.18-0.35,0.45-0.45,0.82   c-0.08,0.28-0.12,0.86-0.12,1.72v1.68h-0.65V74.31z" fill="#fff"/>
	<path class="st0" d="M149.23,74.19c0.77,0,1.4,0.28,1.91,0.83c0.46,0.51,0.69,1.1,0.69,1.8c0,0.69-0.24,1.3-0.73,1.82   s-1.11,0.78-1.87,0.78c-0.76,0-1.39-0.26-1.87-0.78s-0.73-1.13-0.73-1.82c0-0.69,0.23-1.29,0.69-1.79   C147.83,74.46,148.46,74.19,149.23,74.19z M149.23,74.81c-0.53,0-0.99,0.2-1.37,0.59s-0.57,0.87-0.57,1.43   c0,0.36,0.09,0.69,0.26,1.01c0.17,0.31,0.41,0.55,0.71,0.72c0.3,0.17,0.62,0.25,0.98,0.25c0.35,0,0.68-0.08,0.98-0.25   c0.3-0.17,0.53-0.41,0.71-0.72c0.17-0.31,0.26-0.65,0.26-1.01c0-0.56-0.19-1.03-0.58-1.43S149.76,74.81,149.23,74.81z" fill="#fff"/>
	<path class="st0" d="M152.93,74.31h0.65v5.72c0,0.42-0.08,0.72-0.23,0.91s-0.36,0.29-0.62,0.29c-0.22,0-0.46-0.05-0.73-0.16V80.5   c0.17,0.09,0.32,0.13,0.46,0.13c0.17,0,0.3-0.07,0.39-0.21c0.05-0.09,0.08-0.28,0.08-0.57V74.31z M153.25,72.26   c0.15,0,0.27,0.05,0.37,0.16c0.1,0.1,0.15,0.23,0.15,0.37c0,0.14-0.05,0.27-0.15,0.37s-0.23,0.16-0.37,0.16   c-0.15,0-0.27-0.05-0.37-0.16s-0.15-0.23-0.15-0.37c0-0.15,0.05-0.27,0.15-0.37C152.98,72.32,153.1,72.26,153.25,72.26z" fill="#fff"/>
	<path class="st0" d="M159.1,77.64l0.54,0.28c-0.18,0.35-0.38,0.63-0.61,0.84c-0.23,0.21-0.49,0.38-0.78,0.49   c-0.29,0.11-0.62,0.17-0.98,0.17c-0.81,0-1.45-0.27-1.9-0.8c-0.46-0.53-0.69-1.13-0.69-1.8c0-0.63,0.19-1.19,0.58-1.69   c0.49-0.63,1.15-0.94,1.97-0.94c0.85,0,1.53,0.32,2.03,0.96c0.36,0.45,0.54,1.02,0.55,1.7h-4.48c0.01,0.58,0.2,1.05,0.55,1.42   c0.36,0.37,0.8,0.55,1.32,0.55c0.25,0,0.5-0.04,0.74-0.13c0.24-0.09,0.44-0.21,0.61-0.35C158.72,78.2,158.9,77.96,159.1,77.64z    M159.1,76.3c-0.09-0.34-0.21-0.61-0.37-0.82c-0.16-0.2-0.38-0.37-0.65-0.49s-0.55-0.19-0.85-0.19c-0.49,0-0.91,0.16-1.26,0.47   c-0.26,0.23-0.45,0.57-0.58,1.03H159.1z" fill="#fff"/>
	<path class="st0" d="M165.82,75.35l-0.51,0.32c-0.44-0.58-1.04-0.87-1.79-0.87c-0.61,0-1.11,0.19-1.51,0.58s-0.6,0.86-0.6,1.42   c0,0.36,0.09,0.7,0.28,1.02c0.18,0.32,0.44,0.57,0.76,0.74c0.32,0.18,0.68,0.26,1.08,0.26c0.73,0,1.33-0.29,1.79-0.87l0.51,0.33   c-0.24,0.36-0.56,0.64-0.96,0.83s-0.86,0.3-1.37,0.3c-0.79,0-1.44-0.25-1.96-0.75c-0.52-0.5-0.78-1.11-0.78-1.82   c0-0.48,0.12-0.93,0.36-1.34c0.24-0.41,0.58-0.74,1-0.97s0.9-0.35,1.42-0.35c0.33,0,0.65,0.05,0.95,0.15   c0.31,0.1,0.57,0.23,0.78,0.39S165.67,75.1,165.82,75.35z" fill="#fff"/>
	<path class="st0" d="M167.61,72.47h0.64v1.85h1.01v0.55h-1.01v4.42h-0.64v-4.42h-0.87v-0.55h0.87V72.47z" fill="#fff"/>
	<path class="st0" d="M172.73,74.86l-0.41,0.43c-0.34-0.33-0.68-0.5-1-0.5c-0.21,0-0.39,0.07-0.53,0.21   c-0.15,0.14-0.22,0.3-0.22,0.48c0,0.16,0.06,0.32,0.18,0.46c0.12,0.15,0.38,0.32,0.77,0.53c0.48,0.25,0.8,0.48,0.97,0.71   c0.17,0.23,0.25,0.49,0.25,0.78c0,0.41-0.14,0.75-0.43,1.04c-0.29,0.28-0.65,0.43-1.08,0.43c-0.29,0-0.56-0.06-0.82-0.19   s-0.48-0.3-0.65-0.52l0.4-0.46c0.33,0.37,0.67,0.55,1.04,0.55c0.26,0,0.48-0.08,0.66-0.25s0.27-0.36,0.27-0.58   c0-0.18-0.06-0.35-0.18-0.49c-0.12-0.14-0.39-0.32-0.81-0.53c-0.45-0.23-0.75-0.46-0.92-0.69c-0.16-0.23-0.24-0.48-0.24-0.77   c0-0.38,0.13-0.69,0.39-0.94c0.26-0.25,0.58-0.37,0.98-0.37C171.8,74.19,172.26,74.41,172.73,74.86z" fill="#fff"/>
	<path class="st0" d="M176.56,72.56h0.67v6.08h2.59v0.65h-3.26V72.56z" fill="#fff"/>
	<path class="st0" d="M180.88,72.56h0.67v6.08h2.59v0.65h-3.26V72.56z" fill="#fff"/>
	<path class="st0" d="M191.47,73.81l-0.53,0.41c-0.29-0.38-0.64-0.67-1.05-0.87c-0.41-0.2-0.86-0.29-1.35-0.29   c-0.54,0-1.03,0.13-1.49,0.39c-0.46,0.26-0.81,0.6-1.06,1.04c-0.25,0.43-0.38,0.92-0.38,1.47c0,0.82,0.28,1.5,0.84,2.05   c0.56,0.55,1.27,0.82,2.13,0.82c0.94,0,1.73-0.37,2.36-1.11l0.53,0.4c-0.33,0.43-0.75,0.76-1.25,0.99   c-0.5,0.23-1.06,0.35-1.68,0.35c-1.18,0-2.1-0.39-2.78-1.17c-0.57-0.66-0.85-1.46-0.85-2.4c0-0.98,0.35-1.81,1.04-2.48   s1.56-1.01,2.59-1.01c0.63,0,1.19,0.12,1.7,0.37C190.73,73.01,191.15,73.36,191.47,73.81z" fill="#fff"/>
</g>
<g>
	<path d="M28.14,35.91c0.03,0.24,0.06,0.39,0.07,0.55c0.04,1.9,0.07,3.79,0.11,5.69c0.01,0.4-0.14,0.64-0.48,0.85   c-2.82,1.71-5.25,3.88-7.26,6.49c-2.37,3.07-3.97,6.53-4.88,10.31c-0.61,2.51-0.78,5.06-0.66,7.63c0.14,3.1,0.85,6.08,2.07,8.94   c0.85,2.01,1.88,3.92,3.23,5.64c1.98,2.53,4.3,4.7,7,6.44c3.12,2.01,6.52,3.34,10.2,3.9c2.37,0.36,4.74,0.5,7.15,0.21   c3.07-0.37,6-1.18,8.78-2.49c3.17-1.49,5.88-3.61,8.29-6.15c2.52-2.66,4.28-5.75,5.49-9.17c1.12-3.17,1.63-6.47,1.49-9.83   c-0.2-4.59-1.48-8.87-3.84-12.83c-2.27-3.81-5.3-6.86-9.11-9.14c-0.56-0.34-0.82-0.71-0.76-1.41c0.16-1.83,0.23-3.67,0.34-5.51   c0.01-0.09,0.03-0.18,0.05-0.35c0.23,0.08,0.43,0.13,0.61,0.22c3.4,1.59,6.46,3.7,9.14,6.32c3.28,3.21,5.76,6.97,7.51,11.22   c0.95,2.31,1.54,4.72,2.02,7.16c0.13,0.65,0.18,1.31,0.25,1.97c0.1,0.89,0.25,1.78,0.26,2.68c0.01,3.56-0.58,7.03-1.59,10.43   c-0.75,2.53-1.78,4.94-3.18,7.15c-1.93,3.02-4.15,5.79-6.93,8.12c-3.16,2.65-6.66,4.67-10.53,6.06c-2.61,0.94-5.31,1.51-8.08,1.73   c-1,0.08-2.01,0.23-3.01,0.21c-3.68-0.06-7.27-0.7-10.75-1.9c-2.68-0.92-5.21-2.18-7.55-3.76c-3-2.02-5.61-4.48-7.81-7.36   c-2.05-2.68-3.74-5.56-4.86-8.75c-0.94-2.69-1.59-5.44-1.81-8.28c-0.29-3.79-0.09-7.54,0.89-11.24c1.21-4.59,3.26-8.75,6.24-12.45   c3.13-3.9,6.95-6.93,11.44-9.13C27.8,36.02,27.92,35.98,28.14,35.91z" fill="#fff"/>
	<path d="M45.25,7.98c0,0.34,0,0.55,0,0.77c0,18.28-0.01,36.57-0.01,54.85c0,7.93,0,15.85,0,23.78c0,0.65,0.14,0.88-0.79,0.88   c-1.45,0.01-2.91,0.04-4.36,0.08c-0.57,0.01-0.54-0.35-0.54-0.74c0.01-6.97,0.02-13.93,0.01-20.9c0-18.19,0-36.39-0.03-54.58   c0-0.66,0.2-1.03,0.77-1.34c1.47-0.8,2.91-1.66,4.36-2.5C44.81,8.2,44.96,8.13,45.25,7.98z" fill="#fff"/>
	<path d="M36.18,18.22c0,0.29,0,0.47,0,0.64c0,22.69,0,45.38,0,68.08c0,0.81,0,0.81-0.78,0.53c-1.52-0.56-3.03-1.12-4.55-1.68   c-0.54-0.2-0.72-0.53-0.72-1.13c0.02-20.78,0.02-41.55,0-62.33c0-0.5,0.14-0.8,0.59-1.05c1.61-0.9,3.18-1.86,4.77-2.79   C35.68,18.39,35.88,18.34,36.18,18.22z" fill="#fff"/>
	<path d="M47.77,87.67c-0.01-0.27-0.04-0.48-0.04-0.7c0-21.56,0-43.12-0.01-64.68c0-0.51,0.17-0.79,0.61-1.04   c1.71-0.97,3.4-1.97,5.18-3.01c0.01,0.25,0.03,0.44,0.03,0.63c0,21.97,0,43.93,0.01,65.9c0,0.51-0.13,0.82-0.63,1   c-1.31,0.48-2.62,0.99-3.92,1.48C48.63,87.4,48.25,87.51,47.77,87.67z" fill="#fff"/>
</g>
</svg>